<?xml version="1.0" encoding="UTF-8"?>
<svg version="1.1" xmlns="http://www.w3.org/2000/svg" width="426" height="328">
<path d="M0 0 C140.58 0 281.16 0 426 0 C426 108.24 426 216.48 426 328 C285.42 328 144.84 328 0 328 C0 219.76 0 111.52 0 0 Z " fill="#2A3849" transform="translate(0,0)"/>
<path d="M0 0 C35.12671949 -0.04573809 70.25343296 -0.08099918 105.38017594 -0.10213066 C109.52347021 -0.10463219 113.66676441 -0.10722082 117.81005859 -0.10986328 C118.63494365 -0.1103879 119.45982871 -0.11091252 120.30971028 -0.11145304 C133.68114496 -0.12016508 147.05256251 -0.13593943 160.42398702 -0.15430559 C174.13556607 -0.17298245 187.84713613 -0.18411202 201.55872738 -0.18817699 C210.02534227 -0.19092666 218.49190875 -0.19962356 226.95850874 -0.21583293 C232.75763113 -0.22637252 238.55672835 -0.22960753 244.35585962 -0.22700275 C247.70595039 -0.22571671 251.05588766 -0.22882216 254.40597534 -0.23841095 C258.0312071 -0.24828308 261.65622752 -0.2459973 265.28146362 -0.24050903 C266.34953967 -0.24633472 267.41761572 -0.2521604 268.5180577 -0.25816262 C269.48345698 -0.25418052 270.44885626 -0.25019842 271.44351006 -0.24609566 C272.2811731 -0.2468551 273.11883615 -0.24761454 273.98188293 -0.24839699 C276 0 276 0 278 2 C278.54766903 6.45727905 278.46353921 10.95054413 278.5 15.4375 C278.561875 17.28891602 278.561875 17.28891602 278.625 19.17773438 C278.71089536 29.32949217 276.19966647 36.07625311 269.62109375 43.7890625 C268.54021484 44.69785156 268.54021484 44.69785156 267.4375 45.625 C266.71433594 46.25664063 265.99117188 46.88828125 265.24609375 47.5390625 C262.79554215 49.1329865 260.87850792 49.6256422 258 50 C258 50.66 258 51.32 258 52 C254.61126169 53.69436915 250.754258 53.15181348 247.02589417 53.15390015 C246.08456239 53.1582824 245.14323062 53.16266465 244.17337364 53.1671797 C240.99912539 53.1806015 237.82490492 53.18675424 234.65063477 53.19287109 C232.38250095 53.20076963 230.1143684 53.20903843 227.84623718 53.21765137 C220.37797247 53.24390841 212.90970207 53.25918643 205.44140625 53.2734375 C202.87171869 53.27879638 200.30203116 53.28417388 197.73234367 53.28956985 C187.04108007 53.31120732 176.34981935 53.33009422 165.65853977 53.34119225 C162.88311827 53.34412188 160.1076968 53.34708354 157.33227539 53.35009766 C156.64246918 53.35084371 155.95266297 53.35158976 155.24195354 53.35235842 C144.08174255 53.36499649 132.92169143 53.39819698 121.76155508 53.43989949 C110.29745105 53.4823855 98.83346806 53.50548805 87.36927837 53.51111281 C80.93518831 53.51476452 74.50136892 53.52676665 68.0673542 53.55921555 C62.009022 53.58932989 55.95112373 53.59559561 49.89273262 53.58383179 C47.67361838 53.58361131 45.45448383 53.59189455 43.2354393 53.60948563 C18.90562276 53.79179413 18.90562276 53.79179413 11.06060123 46.09798241 C9.5 44.3125 9.5 44.3125 8.21875 42.55078125 C6.90220248 40.70986917 6.90220248 40.70986917 4 39 C3.65657551 37.66923011 3.32380126 36.33568021 3 35 C2.50072998 34.61287842 2.00145996 34.22575684 1.48706055 33.8269043 C-0.77846358 31.0436311 -0.37048661 28.13377446 -0.29296875 24.70703125 C-0.28872391 24.00100266 -0.28447906 23.29497406 -0.28010559 22.56755066 C-0.26333034 20.31547697 -0.22568243 18.06430258 -0.1875 15.8125 C-0.17245157 14.28451815 -0.15876344 12.75652224 -0.14648438 11.22851562 C-0.11343089 7.48533128 -0.06165832 3.74281804 0 0 Z " fill="#F82B3D" transform="translate(72,28)"/>
<path d="M0 0 C1.27025024 0.0146228 1.27025024 0.0146228 2.56616211 0.02954102 C13.08565084 0.32790167 19.86890593 3.46827009 27.4765625 10.8359375 C34.40436646 18.76363069 36.67365244 26.41748322 36.203125 36.88671875 C35.03699675 46.02474101 30.83010005 54.2810545 23.64453125 60.16015625 C21.40450496 61.72933129 19.1412486 63.11178187 16.75 64.4375 C16.15832031 64.77910156 15.56664062 65.12070312 14.95703125 65.47265625 C7.38018097 69.06873309 -2.83303689 68.84493909 -10.70703125 66.3359375 C-20.49922802 61.72929399 -26.83798028 55.30073416 -31.25 45.4375 C-34.23194861 36.47229087 -33.2533666 26.36794007 -29.375 17.9375 C-25.78873667 11.55787942 -21.46663543 7.25203519 -15.25 3.4375 C-13.89841797 2.60605469 -13.89841797 2.60605469 -12.51953125 1.7578125 C-8.24578865 0.03197618 -4.56731603 -0.05813357 0 0 Z " fill="#FAFBFB" transform="translate(254.25,237.5625)"/>
<path d="M0 0 C13.53 0 27.06 0 41 0 C41.12032643 16.56939479 41.12032643 16.56939479 41.14648438 23.68359375 C41.16435251 28.52012116 41.18539029 33.35647667 41.22631836 38.19287109 C41.25914022 42.09621681 41.27690061 45.99937793 41.28463173 49.9028511 C41.2901346 51.38505581 41.30087933 52.8672515 41.31719017 54.34937668 C41.41831288 63.9272719 41.36946997 72.89474246 35.9375 81.125 C34 83 34 83 32 83 C32 83.66 32 84.32 32 85 C25 88 25 88 0 88 C0 58.96 0 29.92 0 0 Z " fill="#F62E3F" transform="translate(167,104)"/>
<path d="M0 0 C5.65725838 3.92459253 9.88240181 8.95413607 12.1171875 15.46875 C12.35769653 17.89228821 12.35769653 17.89228821 12.34423828 20.44262695 C12.34408722 21.40324539 12.34393616 22.36386383 12.34378052 23.35359192 C12.33345795 24.3777269 12.32313538 25.40186188 12.3125 26.45703125 C12.3096701 27.51536667 12.30684021 28.57370209 12.30392456 29.66410828 C12.2927504 33.03660498 12.26765057 36.40883387 12.2421875 39.78125 C12.23215414 42.0709597 12.22302891 44.36067357 12.21484375 46.65039062 C12.1928201 52.25660143 12.15936986 57.86265658 12.1171875 63.46875 C9.47128736 63.49559679 6.82565654 63.51551357 4.1796875 63.53125 C3.42494141 63.53962891 2.67019531 63.54800781 1.89257812 63.55664062 C-0.03275563 63.56527441 -1.95816831 63.52099333 -3.8828125 63.46875 C-4.8828125 62.46875 -4.8828125 62.46875 -4.9453125 59.90625 C-4.9246875 59.101875 -4.9040625 58.2975 -4.8828125 57.46875 C-5.47449219 57.89027344 -6.06617188 58.31179688 -6.67578125 58.74609375 C-7.46597656 59.29394531 -8.25617188 59.84179688 -9.0703125 60.40625 C-9.84761719 60.95152344 -10.62492187 61.49679687 -11.42578125 62.05859375 C-17.72846821 65.67587514 -25.85241565 65.16860851 -32.8828125 64.46875 C-38.62244304 62.40105701 -42.39256986 58.33393672 -45.8828125 53.46875 C-47.04076727 49.99488568 -47.05111099 47.19105696 -47.0703125 43.53125 C-47.08449219 42.30535156 -47.09867187 41.07945312 -47.11328125 39.81640625 C-46.82615797 35.64581891 -46.17361638 33.6598229 -43.11328125 30.8359375 C-42.43910156 30.34351563 -41.76492188 29.85109375 -41.0703125 29.34375 C-40.07064453 28.59738281 -40.07064453 28.59738281 -39.05078125 27.8359375 C-33.54846454 24.36600804 -28.92031903 24.15945033 -22.5703125 24.21875 C-21.34538086 24.20714844 -21.34538086 24.20714844 -20.09570312 24.1953125 C-14.70323529 24.21249965 -10.06247781 24.96670667 -4.8828125 26.46875 C-5.1363978 22.15779992 -5.4674116 19.97160372 -8.2578125 16.59375 C-13.6577219 12.22239477 -20.23578527 12.96940436 -26.8828125 13.46875 C-30.31876457 14.8913361 -30.31876457 14.8913361 -32.8828125 16.46875 C-34.86328125 16.36328125 -34.86328125 16.36328125 -36.8828125 15.46875 C-38.3671875 13.2890625 -38.3671875 13.2890625 -39.6328125 10.59375 C-40.27476562 9.26730469 -40.27476562 9.26730469 -40.9296875 7.9140625 C-41.8828125 5.46875 -41.8828125 5.46875 -41.8828125 2.46875 C-28.89817296 -2.48451849 -13.24756999 -6.41750795 0 0 Z " fill="#FAFAFB" transform="translate(395.8828125,240.53125)"/>
<path d="M0 0 C19.8 0 39.6 0 60 0 C60 5.61 60 11.22 60 17 C46.47 17 32.94 17 19 17 C19 23.6 19 30.2 19 37 C31.21 37 43.42 37 56 37 C56 42.28 56 47.56 56 53 C43.46 53 30.92 53 18 53 C18 63.56 18 74.12 18 85 C12.06 85 6.12 85 0 85 C0 56.95 0 28.9 0 0 Z " fill="#F8F9F9" transform="translate(15,218)"/>
<path d="M0 0 C6.55797363 -1.05481235 13.57607138 -2.08809864 20 0 C24.98748414 4.18948667 28.06058739 10.86089188 30 17 C30 17.99 30 18.98 30 20 C30.66 20 31.32 20 32 20 C32.24878906 19.33613281 32.49757812 18.67226563 32.75390625 17.98828125 C38.54211595 4.10746489 38.54211595 4.10746489 44 0 C50.1840869 -1.82761738 56.71523426 -0.87109176 63 0 C62.10337553 4.29912451 59.89497566 7.43162932 57.4375 11 C56.53247152 12.33458078 55.62752482 13.66921703 54.72265625 15.00390625 C54.26777832 15.6705127 53.81290039 16.33711914 53.34423828 17.02392578 C51.33278522 19.98082753 49.35463096 22.95920012 47.375 25.9375 C45.6875 28.46875 45.6875 28.46875 44 31 C44.44279297 31.87785156 44.44279297 31.87785156 44.89453125 32.7734375 C45.85566196 34.7092838 46.77536206 36.66559256 47.6875 38.625 C50.26666263 43.78332525 53.62647034 48.33864989 57 53 C58.31730918 54.82988084 59.62997621 56.66311435 60.9375 58.5 C61.81728516 59.72203125 61.81728516 59.72203125 62.71484375 60.96875 C64 63 64 63 64 65 C47.11298557 66.51831299 47.11298557 66.51831299 42.390625 63.125 C40.59917741 60.49535216 39.28872934 57.90749913 38 55 C36.91822334 53.11199357 35.81483321 51.23616331 34.6875 49.375 C34.21699219 48.53710938 33.74648437 47.69921875 33.26171875 46.8359375 C32.63716797 45.92714844 32.63716797 45.92714844 32 45 C31.34 45 30.68 45 30 45 C29.38511719 46.10859375 28.77023438 47.2171875 28.13671875 48.359375 C27.32046529 49.82300189 26.50405056 51.28653884 25.6875 52.75 C25.28337891 53.47960937 24.87925781 54.20921875 24.46289062 54.9609375 C23.67384802 56.37223321 22.87104677 57.77594081 22.0534668 59.17089844 C20.92072003 61.08195498 20.92072003 61.08195498 19.8125 63.5 C16.54975881 66.20019961 12.37622685 65.40458215 8.3125 65.25 C7.41982422 65.23195313 6.52714844 65.21390625 5.60742188 65.1953125 C3.40386496 65.14817759 1.20247399 65.08240657 -1 65 C0.27701956 61.51110924 1.75676975 58.6893365 3.9375 55.6875 C4.5459375 54.83285156 5.154375 53.97820312 5.78125 53.09765625 C6.98822916 51.41256034 8.19523008 49.72748002 9.40234375 48.04248047 C10.92328892 45.90970053 12.43094559 43.7679626 13.9375 41.625 C14.43435303 40.93494873 14.93120605 40.24489746 15.44311523 39.53393555 C15.90403564 38.87562744 16.36495605 38.21731934 16.83984375 37.5390625 C17.25613037 36.95334473 17.67241699 36.36762695 18.10131836 35.76416016 C19.3026061 33.73594655 19.3026061 33.73594655 19 30 C17.57300744 27.18967566 17.57300744 27.18967566 15.60546875 24.24609375 C14.89712891 23.14458984 14.18878906 22.04308594 13.45898438 20.90820312 C13.08604248 20.33851807 12.71310059 19.76883301 12.32885742 19.18188477 C11.19297334 17.44586513 10.07104878 15.70145616 8.95117188 13.95507812 C5.47835055 8.32389949 5.47835055 8.32389949 1.26293945 3.27368164 C0 2 0 2 0 0 Z " fill="#F8F9FA" transform="translate(152,239)"/>
<path d="M0 0 C18.81 0 37.62 0 57 0 C55.88140044 4.47439825 54.21362771 6.00947202 51 9 C49.71362418 10.26696269 48.43138576 11.53813399 47.15234375 12.8125 C46.12077148 13.83730469 46.12077148 13.83730469 45.06835938 14.8828125 C44.36517578 15.58148438 43.66199219 16.28015625 42.9375 17 C42.23044922 17.69867188 41.52339844 18.39734375 40.79492188 19.1171875 C37.29572345 22.59995777 34.00122875 26.06760242 31 30 C28.875 32.3125 28.875 32.3125 27 34 C26.34 34 25.68 34 25 34 C24.66548828 35.06927734 24.66548828 35.06927734 24.32421875 36.16015625 C22.68711044 39.67100505 20.58625702 41.74026042 17.8125 44.4375 C17.32217285 44.91759521 16.8318457 45.39769043 16.32666016 45.89233398 C13.59061277 48.54886078 10.78873881 51.10308637 7.875 53.5625 C4.99667845 55.67912299 4.99667845 55.67912299 4 58 C2.68 58 1.36 58 0 58 C0 38.86 0 19.72 0 0 Z " fill="#F53242" transform="translate(224,110)"/>
<path d="M0 0 C5.94 0 11.88 0 18 0 C18.02255001 11.58688749 18.0409145 23.17376052 18.05181217 34.76066494 C18.05704125 40.14033762 18.06413935 45.51999458 18.07543945 50.8996582 C18.08626745 56.08674843 18.09227665 61.27382349 18.09487724 66.46092415 C18.09673165 68.4445628 18.10035256 70.42820058 18.10573006 72.41183281 C18.11293932 75.18009136 18.11399099 77.94828638 18.11352539 80.71655273 C18.11712067 81.54517319 18.12071594 82.37379364 18.12442017 83.2275238 C18.11405216 88.88594784 18.11405216 88.88594784 17 90 C14.3226862 90.09981214 11.67695825 90.13879875 9 90.125 C7.87464844 90.13080078 7.87464844 90.13080078 6.7265625 90.13671875 C1.12661053 90.12661053 1.12661053 90.12661053 0 89 C-0.09517803 86.23061034 -0.12554265 83.48622841 -0.11352539 80.71655273 C-0.11367142 79.84833893 -0.11381744 78.98012512 -0.1139679 78.08560181 C-0.11326846 75.20157414 -0.10547463 72.3176102 -0.09765625 69.43359375 C-0.09579218 67.43962133 -0.09436823 65.44564845 -0.09336853 63.45167542 C-0.08954248 58.19254298 -0.07971145 52.93343797 -0.06866455 47.67431641 C-0.0584523 42.31217825 -0.05387131 36.95003569 -0.04882812 31.58789062 C-0.03808926 21.05857973 -0.02049176 10.52929643 0 0 Z " fill="#F8F9F9" transform="translate(87,214)"/>
<path d="M0 0 C0 5.94 0 11.88 0 18 C-1.52625 18.061875 -3.0525 18.12375 -4.625 18.1875 C-10.06344348 18.73365203 -12.29312464 20.02188986 -16 24 C-19.24011757 28.27691633 -19.46813543 32.16834902 -19.51171875 37.36328125 C-19.52966995 38.15526413 -19.54762115 38.94724701 -19.56611633 39.76322937 C-19.62006838 42.27959962 -19.65406563 44.79578185 -19.6875 47.3125 C-19.72068651 49.02411462 -19.75517741 50.73570448 -19.79101562 52.44726562 C-19.87823016 56.63153519 -19.93842409 60.81496114 -20 65 C-25.94 65 -31.88 65 -38 65 C-38 43.88 -38 22.76 -38 1 C-32.06 1 -26.12 1 -20 1 C-20 3.97 -20 6.94 -20 10 C-18.68 9.67 -17.36 9.34 -16 9 C-15.89816406 8.39671875 -15.79632813 7.7934375 -15.69140625 7.171875 C-14.87580711 4.60987997 -14.07941844 3.83082363 -11.9375 2.25 C-11.38964844 1.82203125 -10.84179688 1.3940625 -10.27734375 0.953125 C-8 0 -8 0 0 0 Z " fill="#F9F9FA" transform="translate(341,238)"/>
<path d="M0 0 C5.94 0 11.88 0 18 0 C18 21.45 18 42.9 18 65 C12.39 65 6.78 65 1 65 C0 64 0 64 -0.12025452 61.45005798 C-0.11803391 60.31532547 -0.11581329 59.18059296 -0.11352539 58.01147461 C-0.11344986 56.73022202 -0.11337433 55.44896942 -0.11329651 54.12889099 C-0.10818909 52.72004152 -0.10297309 51.31119244 -0.09765625 49.90234375 C-0.09579202 48.46887766 -0.09436814 47.03541093 -0.09336853 45.60194397 C-0.08954372 41.82240043 -0.07971377 38.0428951 -0.06866455 34.2633667 C-0.05844963 30.40930702 -0.05387074 26.55524118 -0.04882812 22.70117188 C-0.03809145 15.13409512 -0.02049497 7.56705777 0 0 Z " fill="#F6F7F7" transform="translate(122,239)"/>
<path d="M0 0 C4.15074319 3.6566071 7.96163665 7.72335514 8.99609375 13.3203125 C9.2028317 19.91160484 7.24184012 24.8330365 3.625 30.3125 C-0.21006721 34.05625609 -2.86245121 35.23931216 -8.25 35.5 C-13.4740558 35.39494586 -16.22416474 34.46333526 -20 30.6875 C-23.46392933 26.19641182 -25.04981162 21.50752157 -25.875 15.9375 C-25.08736078 10.22711568 -22.99083411 4.9084166 -18.8359375 0.78515625 C-13.07473074 -3.05109754 -6.05426033 -3.02713016 0 0 Z " fill="#2F3C4F" transform="translate(264.375,254.6875)"/>
<path d="M0 0 C35.12671949 -0.04573809 70.25343296 -0.08099918 105.38017594 -0.10213066 C109.52347021 -0.10463219 113.66676441 -0.10722082 117.81005859 -0.10986328 C118.63494365 -0.1103879 119.45982871 -0.11091252 120.30971028 -0.11145304 C133.68114496 -0.12016508 147.05256251 -0.13593943 160.42398702 -0.15430559 C174.13556607 -0.17298245 187.84713613 -0.18411202 201.55872738 -0.18817699 C210.02534227 -0.19092666 218.49190875 -0.19962356 226.95850874 -0.21583293 C232.75763113 -0.22637252 238.55672835 -0.22960753 244.35585962 -0.22700275 C247.70595039 -0.22571671 251.05588766 -0.22882216 254.40597534 -0.23841095 C258.0312071 -0.24828308 261.65622752 -0.2459973 265.28146362 -0.24050903 C266.34953967 -0.24633472 267.41761572 -0.2521604 268.5180577 -0.25816262 C269.48345698 -0.25418052 270.44885626 -0.25019842 271.44351006 -0.24609566 C272.2811731 -0.2468551 273.11883615 -0.24761454 273.98188293 -0.24839699 C276 0 276 0 278 2 C278.22705078 4.79736328 278.22705078 4.79736328 278.1953125 8.3203125 C278.18886719 9.57714844 278.18242187 10.83398438 278.17578125 12.12890625 C278.15902344 13.44761719 278.14226562 14.76632813 278.125 16.125 C278.11496983 17.46483721 278.10584404 18.80468152 278.09765625 20.14453125 C278.07402075 23.42986573 278.04107234 26.71484465 278 30 C277.34 30.33 276.68 30.66 276 31 C276 21.43 276 11.86 276 2 C185.58 2 95.16 2 2 2 C2 12.56 2 23.12 2 34 C0 32 0 32 -0.22705078 28.83544922 C-0.22673389 27.49182037 -0.21542181 26.1481659 -0.1953125 24.8046875 C-0.1924826 24.09724396 -0.18965271 23.38980042 -0.18673706 22.66091919 C-0.17553137 20.3987749 -0.15042679 18.13702485 -0.125 15.875 C-0.11497067 14.34245363 -0.10584474 12.80990106 -0.09765625 11.27734375 C-0.07559086 7.51807699 -0.04105896 3.75910536 0 0 Z " fill="#912C41" transform="translate(72,28)"/>
<path d="M0 0 C85.47 0 170.94 0 259 0 C259 0.33 259 0.66 259 1 C252.82529334 1.14314629 246.65057 1.28554181 240.47583008 1.42724609 C238.37589044 1.47554292 236.27595548 1.52404377 234.17602539 1.57275391 C231.15512281 1.64279139 228.13420407 1.71209168 225.11328125 1.78125 C224.17664139 1.80312378 223.24000153 1.82499756 222.27497864 1.84753418 C221.39444321 1.86755493 220.51390778 1.88757568 219.60668945 1.90820312 C218.83613724 1.92596802 218.06558502 1.94373291 217.27168274 1.96203613 C215.68952431 1.98847682 214.10654541 1.9795126 212.52458191 1.9432373 C210.01957838 1.92011067 210.01957838 1.92011067 207.70119286 2.49561119 C204.82285529 3.03307791 202.18355894 3.12587384 199.2563324 3.12698364 C197.53502609 3.13121338 197.53502609 3.13121338 195.77894592 3.13552856 C194.52859055 3.13350433 193.27823517 3.1314801 191.98999023 3.12939453 C190.65226189 3.13075055 189.31453391 3.13253162 187.97680664 3.13470459 C184.34570104 3.1392616 180.71462388 3.13749472 177.08351779 3.1343255 C173.26385343 3.13178513 169.44419144 3.13414484 165.62452698 3.13571167 C159.19442308 3.13753178 152.76433067 3.13513466 146.33422852 3.13037109 C138.95059668 3.12496349 131.5669926 3.12666607 124.18336147 3.1321975 C117.8135716 3.13677494 111.44378998 3.13735575 105.07399899 3.13475883 C101.28399743 3.13321679 97.49400878 3.13294354 93.7040081 3.13629532 C79.11222633 3.14746461 64.55395902 3.10212627 49.98231506 2.23352051 C42.53179969 1.79662687 35.08249676 1.73919571 27.62109375 1.70483398 C25.84497253 1.69308803 24.06889221 1.67230064 22.29296875 1.64331055 C19.67424545 1.60091262 17.05652216 1.58453521 14.4375 1.57421875 C13.64593506 1.55671066 12.85437012 1.53920258 12.03881836 1.52116394 C8.56611543 1.53496827 6.40538088 1.72402887 3.50146484 3.70092773 C1.70877148 6.44593479 1.50944056 7.95078183 1.5390625 11.2109375 C1.54292969 12.20867188 1.54679687 13.20640625 1.55078125 14.234375 C1.57527344 15.27078125 1.59976563 16.3071875 1.625 17.375 C1.62628906 18.40367188 1.62757812 19.43234375 1.62890625 20.4921875 C1.68851458 25.63174975 1.76650368 30.26372056 4 35 C4.66 35.33 5.32 35.66 6 36 C5.67 36.99 5.34 37.98 5 39 C2 37 2 37 0 32 C0 21.44 0 10.88 0 0 Z " fill="#D92C40" transform="translate(74,30)"/>
<path d="M0 0 C0.99 0.33 1.98 0.66 3 1 C-0.28804981 3.91227269 -2.59885603 5.49701212 -7 6 C-7 6.66 -7 7.32 -7 8 C-10.39696091 9.69848045 -14.27048488 9.14406907 -18.00775146 9.14044189 C-19.42504087 9.14489858 -19.42504087 9.14489858 -20.87096238 9.1494453 C-24.05688738 9.15816026 -27.24277494 9.1596429 -30.42871094 9.16113281 C-32.70495688 9.16575904 -34.98120204 9.17078343 -37.25744629 9.17617798 C-43.45587986 9.18932349 -49.65430258 9.19575121 -55.85274792 9.20018864 C-59.72261642 9.2031161 -63.59248193 9.2072203 -67.46234894 9.21169281 C-78.17507215 9.22380525 -88.88779145 9.23418591 -99.60052109 9.2375679 C-100.62938038 9.23789725 -100.62938038 9.23789725 -101.67902471 9.23823325 C-102.36658369 9.23845153 -103.05414267 9.23866981 -103.76253676 9.2388947 C-105.15581878 9.23933817 -106.5491008 9.23978473 -107.94238281 9.24023438 C-108.63350057 9.2404558 -109.32461834 9.24067723 -110.03667906 9.24090537 C-121.23255243 9.24485245 -132.42836068 9.26230279 -143.6242089 9.2855939 C-155.1165327 9.3093089 -166.60881456 9.32151187 -178.1011641 9.32293582 C-184.55457959 9.3239853 -191.00790328 9.3299234 -197.46129608 9.34775543 C-203.53184825 9.36420254 -209.60223931 9.3664079 -215.67280579 9.35761642 C-217.90207093 9.35684423 -220.13134461 9.36121268 -222.36058807 9.37107468 C-225.40202319 9.38374148 -228.44288317 9.37794579 -231.48431396 9.36749268 C-232.36817268 9.37554908 -233.2520314 9.38360548 -234.16267371 9.39190602 C-239.20741382 9.35130809 -242.58100363 8.71362415 -247 6 C-244.72693594 5.24231198 -243.29022942 4.93508635 -240.92787552 5.46345806 C-236.887277 6.20390981 -232.94125538 6.14804732 -228.8414917 6.14717102 C-227.91660328 6.15084771 -226.99171486 6.1545244 -226.03879952 6.1583125 C-222.93829561 6.16932941 -219.83782523 6.17318978 -216.73730469 6.17700195 C-214.514744 6.18326802 -212.29218435 6.18991495 -210.06962585 6.19691467 C-202.77038297 6.21793734 -195.47113991 6.22831419 -188.171875 6.23828125 C-185.65816487 6.24232923 -183.14445484 6.24644616 -180.63074493 6.25063133 C-170.17525949 6.26749607 -159.71977517 6.28213156 -149.26427841 6.28938007 C-146.553627 6.29128982 -143.8429756 6.29321018 -141.13232422 6.29516602 C-140.12180234 6.29589163 -140.12180234 6.29589163 -139.09086588 6.2966319 C-128.17848142 6.3049317 -117.2662066 6.33027042 -106.35387 6.36274669 C-95.14055575 6.39584572 -83.9272951 6.41349873 -72.7139256 6.41702431 C-66.42195004 6.41937497 -60.13014794 6.42833812 -53.83821869 6.45348549 C-47.91860448 6.47676327 -41.99927801 6.48100042 -36.0796299 6.47072411 C-33.90966904 6.4702286 -31.73969403 6.47655336 -29.56977654 6.49028015 C-26.60165498 6.50800269 -23.63456572 6.50089077 -20.66644287 6.48774719 C-19.81282378 6.49871644 -18.95920469 6.50968568 -18.07971835 6.52098733 C-12.63663455 6.46300763 -8.68604037 5.31831349 -3.82422662 2.85785264 C-2 2 -2 2 0 2 C0 1.34 0 0.68 0 0 Z " fill="#B52F3E" transform="translate(337,72)"/>
<path d="M0 0 C1.24789307 0.00036255 1.24789307 0.00036255 2.52099609 0.00073242 C3.8181958 0.01608032 3.8181958 0.01608032 5.14160156 0.03173828 C5.94355957 0.03375244 6.74551758 0.0357666 7.57177734 0.0378418 C10.55865219 0.04828147 13.5454453 0.07620408 16.53222656 0.10205078 C26.55597656 0.16392578 26.55597656 0.16392578 36.78222656 0.22705078 C36.78222656 24.97705078 36.78222656 49.72705078 36.78222656 75.22705078 C35.79222656 75.22705078 34.80222656 75.22705078 33.78222656 75.22705078 C33.28722656 76.71205078 33.28722656 76.71205078 32.78222656 78.22705078 C32.94070068 77.22996094 33.0991748 76.23287109 33.26245117 75.20556641 C34.11221756 68.36250875 34.01949892 61.45639116 34.09863281 54.57080078 C34.11923679 53.05765256 34.14023408 51.54450964 34.16160583 50.03137207 C34.21647126 46.07279799 34.2660353 42.11417507 34.31445312 38.15551758 C34.37382386 33.3929314 34.43985389 28.63043335 34.50475311 23.86791992 C34.60231476 16.65435126 34.69147641 9.44072282 34.78222656 2.22705078 C21.25222656 2.22705078 7.72222656 2.22705078 -6.21777344 2.22705078 C-6.21777344 31.26705078 -6.21777344 60.30705078 -6.21777344 90.22705078 C2.03222656 90.22705078 10.28222656 90.22705078 18.78222656 90.22705078 C18.78222656 90.55705078 18.78222656 90.88705078 18.78222656 91.22705078 C14.46974047 91.25591615 10.15727895 91.27380333 5.84472656 91.28955078 C4.61302734 91.29792969 3.38132813 91.30630859 2.11230469 91.31494141 C0.94248047 91.31816406 -0.22734375 91.32138672 -1.43261719 91.32470703 C-3.05864868 91.33256226 -3.05864868 91.33256226 -4.7175293 91.34057617 C-7.21777344 91.22705078 -7.21777344 91.22705078 -8.21777344 90.22705078 C-8.31293555 87.48816658 -8.34331938 84.77457137 -8.33129883 82.03540039 C-8.33144485 81.17694016 -8.33159088 80.31847992 -8.33174133 79.43400574 C-8.33104191 76.5824434 -8.32324814 73.73094553 -8.31542969 70.87939453 C-8.31356561 68.90784236 -8.31214166 66.93628973 -8.31114197 64.96473694 C-8.30731595 59.76478811 -8.29748496 54.56486703 -8.28643799 49.3649292 C-8.27622566 44.06311417 -8.27164473 38.76129468 -8.26660156 33.45947266 C-8.25586276 23.04865315 -8.23878534 12.63785427 -8.21777344 2.22705078 C-5.3419593 0.59434974 -3.29976969 -0.02036895 0 0 Z " fill="#9C3544" transform="translate(173.2177734375,101.77294921875)"/>
<path d="M0 0 C3.10492801 1.34671577 5.44689327 2.89378654 7 6 C7.47747649 9.4787573 7.67117492 11.95296712 5.73046875 14.98046875 C0.76211536 20.84336752 0.76211536 20.84336752 -3.8125 21.25 C-7.47677686 20.96260574 -9.1210833 20.25644822 -12 18 C-14.32380221 15.11528002 -14.96448964 13.24413376 -15.5 9.5625 C-14.99949034 5.99636869 -14.25324952 3.76146601 -11.75390625 1.10546875 C-8.10769727 -1.1926986 -4.09654364 -0.78527993 0 0 Z " fill="#F6F7F7" transform="translate(136,210)"/>
<path d="M0 0 C0.71542969 0.00128906 1.43085938 0.00257813 2.16796875 0.00390625 C5.91267364 0.06690129 7.69362597 0.25408398 10.875 2.375 C10.50825183 9.58771394 10.50825183 9.58771394 7.5625 13.25 C2.82606297 16.99508974 -0.69238937 17.94978056 -6.703125 17.81640625 C-9.39182321 17.32636932 -10.44734553 16.77719923 -12.3125 14.8125 C-14.125 11.375 -14.125 11.375 -14.25 7.75 C-11.85985692 0.57957075 -6.92606265 -0.2396998 0 0 Z " fill="#323D4D" transform="translate(380.125,275.625)"/>
<path d="M0 0 C18.81 0 37.62 0 57 0 C55.85883361 4.56466555 54.42365848 5.91035699 51 9 C50.34 9.33 49.68 9.66 49 10 C49.66666667 7.33333333 50.33333333 4.66666667 51 2 C48.08302989 2.14104691 45.1665198 2.28764814 42.25 2.4375 C41.425 2.47681641 40.6 2.51613281 39.75 2.55664062 C38.95078125 2.59853516 38.1515625 2.64042969 37.328125 2.68359375 C36.5949707 2.72025146 35.86181641 2.75690918 35.10644531 2.79467773 C32.99326982 2.94449565 32.99326982 2.94449565 30.97094727 3.53173828 C26.95797039 4.48514961 22.55087918 3.61254967 18.46289062 3.22851562 C13.46133787 2.84241528 9.71986695 3.23528422 5 5 C2.68313634 6.87644507 2.68313634 6.87644507 2.8125 9.9375 C2.87049768 13.04093079 2.87049768 13.04093079 4 16 C3.68816215 17.67082197 3.35203114 19.33718222 3 21 C2.94348361 22.87938084 2.93761625 24.76072111 2.97265625 26.640625 C2.98490234 27.71183594 2.99714844 28.78304687 3.00976562 29.88671875 C3.04467796 32.11335019 3.08368222 34.33992156 3.12695312 36.56640625 C3.19309592 43.06396274 2.68952954 48.71892549 1 55 C1.99 55 2.98 55 4 55 C4 54.34 4 53.68 4 53 C4.66 53 5.32 53 6 53 C6 52.34 6 51.68 6 51 C6.66 51 7.32 51 8 51 C8 50.34 8 49.68 8 49 C8.99 49 9.98 49 11 49 C11.33 48.01 11.66 47.02 12 46 C12.66 46 13.32 46 14 46 C14 45.34 14 44.68 14 44 C15.53125 42.4921875 15.53125 42.4921875 17.5 40.875 C18.1496875 40.33617187 18.799375 39.79734375 19.46875 39.2421875 C19.9740625 38.83226562 20.479375 38.42234375 21 38 C21.66 38.33 22.32 38.66 23 39 C12.38976051 49.7829197 12.38976051 49.7829197 7.875 53.5625 C4.99667845 55.67912299 4.99667845 55.67912299 4 58 C2.68 58 1.36 58 0 58 C0 38.86 0 19.72 0 0 Z " fill="#D93144" transform="translate(224,110)"/>
<path d="M0 0 C13.53 0 27.06 0 41 0 C41 24.75 41 49.5 41 75 C40.01 75 39.02 75 38 75 C37.505 76.485 37.505 76.485 37 78 C37.15847412 77.00742188 37.31694824 76.01484375 37.48022461 74.9921875 C38.33933444 68.07313132 38.23758577 61.08711616 38.31640625 54.125 C38.33700953 52.5894316 38.35800681 51.05386844 38.37937927 49.51831055 C38.43425185 45.50055213 38.48381282 41.48274553 38.53222656 37.46490479 C38.59159062 32.63140154 38.65762469 27.79798528 38.72252655 22.96455383 C38.82009723 15.64308955 38.90925274 8.32156634 39 1 C26.13 1 13.26 1 0 1 C0 0.67 0 0.34 0 0 Z " fill="#753A49" transform="translate(169,102)"/>
<path d="M0 0 C13.53 0 27.06 0 41 0 C41 22.44 41 44.88 41 68 C40.67 68 40.34 68 40 68 C39.21286657 59.28541608 38.8618167 50.66592107 38.90234375 41.91796875 C38.9037587 40.73777664 38.90517365 39.55758453 38.90663147 38.34162903 C38.91216677 34.62355869 38.9247066 30.90555171 38.9375 27.1875 C38.94252338 24.64518317 38.94708481 22.10286538 38.95117188 19.56054688 C38.96211489 13.37367681 38.97878698 7.18684293 39 1 C38.42232376 1.07350174 37.84464752 1.14700348 37.24946594 1.22273254 C32.71323817 1.7689323 28.36916208 2.09058421 23.79296875 1.88671875 C22.17165039 1.8412793 22.17165039 1.8412793 20.51757812 1.79492188 C18.27730614 1.72265504 16.03758034 1.63116388 13.79882812 1.52148438 C8.2145076 1.13134566 8.2145076 1.13134566 3.38525391 3.35791016 C2.13683352 5.17031712 2.13683352 5.17031712 1 8 C0.67 8 0.34 8 0 8 C0 5.36 0 2.72 0 0 Z " fill="#DB3146" transform="translate(167,104)"/>
<path d="M0 0 C18.81 0 37.62 0 57 0 C56.67 0.99 56.34 1.98 56 3 C56 2.34 56 1.68 56 1 C37.85 1 19.7 1 1 1 C1 18.82 1 36.64 1 55 C1.99 55 2.98 55 4 55 C4 54.34 4 53.68 4 53 C4.66 53 5.32 53 6 53 C6 52.34 6 51.68 6 51 C6.66 51 7.32 51 8 51 C8 50.34 8 49.68 8 49 C8.99 49 9.98 49 11 49 C11.33 48.01 11.66 47.02 12 46 C12.66 46 13.32 46 14 46 C14 45.34 14 44.68 14 44 C15.53125 42.4921875 15.53125 42.4921875 17.5 40.875 C18.1496875 40.33617187 18.799375 39.79734375 19.46875 39.2421875 C19.9740625 38.83226562 20.479375 38.42234375 21 38 C21.66 38.33 22.32 38.66 23 39 C12.38976051 49.7829197 12.38976051 49.7829197 7.875 53.5625 C4.99667845 55.67912299 4.99667845 55.67912299 4 58 C2.68 58 1.36 58 0 58 C0 38.86 0 19.72 0 0 Z " fill="#B23645" transform="translate(224,110)"/>
<path d="M0 0 C3 1 3 1 5 4 C5 6.31 5 8.62 5 11 C-3.25 10.34 -11.5 9.68 -20 9 C-20 8.67 -20 8.34 -20 8 C-15.38 8 -10.76 8 -6 8 C-6 7.34 -6 6.68 -6 6 C-5.38125 5.938125 -4.7625 5.87625 -4.125 5.8125 C-1.72238859 5.171081 -1.72238859 5.171081 -0.75 2.4375 C-0.5025 1.633125 -0.255 0.82875 0 0 Z " fill="#454D5B" transform="translate(386,256)"/>
<path d="M0 0 C3.63 0 7.26 0 11 0 C7 2 7 2 4.8125 2.8125 C2.77800827 3.88315096 2.77800827 3.88315096 2.1875 6.3125 C1.88236921 8.98360183 1.88236921 8.98360183 2.5 11.5 C3 14 3 14 2.53515625 16.29492188 C1.95988326 19.20277987 1.90276615 21.81922475 1.9375 24.78125 C1.94523438 25.87050781 1.95296875 26.95976562 1.9609375 28.08203125 C1.97382813 29.20996094 1.98671875 30.33789062 2 31.5 C2.02559467 33.73953398 2.04659735 35.97912623 2.0625 38.21875 C2.07410156 39.20810547 2.08570313 40.19746094 2.09765625 41.21679688 C2.00271415 43.92264666 1.61075661 46.36701381 1 49 C0.67 49 0.34 49 0 49 C0 32.83 0 16.66 0 0 Z " fill="#E33849" transform="translate(225,112)"/>
<path d="M0 0 C0.33 0.99 0.66 1.98 1 3 C-0.15234375 4.76171875 -0.15234375 4.76171875 -1.9375 6.6875 C-2.58460938 7.38617188 -3.23171875 8.08484375 -3.8984375 8.8046875 C-4.59195312 9.52914062 -5.28546875 10.25359375 -6 11 C-7.00933594 12.08667969 -7.00933594 12.08667969 -8.0390625 13.1953125 C-11.76668638 17.09564482 -14.97142365 19.98856946 -20 22 C-19.34 20.68 -18.68 19.36 -18 18 C-17.34 18 -16.68 18 -16 18 C-15.67 17.01 -15.34 16.02 -15 15 C-14.34 15 -13.68 15 -13 15 C-12.78601563 14.45859375 -12.57203125 13.9171875 -12.3515625 13.359375 C-10.51922057 10.1607203 -8.00203394 7.79035516 -5.375 5.25 C-4.859375 4.74339844 -4.34375 4.23679687 -3.8125 3.71484375 C-2.54616661 2.47196098 -1.2736856 1.23534724 0 0 Z " fill="#6B3844" transform="translate(271,122)"/>
<path d="M0 0 C0.66 0.33 1.32 0.66 2 1 C-12.96217368 16.20970964 -12.96217368 16.20970964 -17 19 C-17.99 19 -18.98 19 -20 19 C-20 18.34 -20 17.68 -20 17 C-19.01 17 -18.02 17 -17 17 C-17 16.34 -17 15.68 -17 15 C-16.34 15 -15.68 15 -15 15 C-15 14.34 -15 13.68 -15 13 C-14.34 13 -13.68 13 -13 13 C-13 12.34 -13 11.68 -13 11 C-12.01 11 -11.02 11 -10 11 C-9.67 10.01 -9.34 9.02 -9 8 C-8.34 8 -7.68 8 -7 8 C-7 7.34 -7 6.68 -7 6 C-5.46875 4.4921875 -5.46875 4.4921875 -3.5 2.875 C-2.8503125 2.33617187 -2.200625 1.79734375 -1.53125 1.2421875 C-1.0259375 0.83226562 -0.520625 0.42234375 0 0 Z " fill="#CA3F4E" transform="translate(245,148)"/>
<path d="M0 0 C-2.97 2.97 -5.94 5.94 -9 9 C-9.66 8.34 -10.32 7.68 -11 7 C-8.53661745 2.20288662 -5.72998459 -1.90999486 0 0 Z " fill="#423544" transform="translate(257,142)"/>
<path d="M0 0 C6.27 0 12.54 0 19 0 C18.67 1.32 18.34 2.64 18 4 C17.34 3.34 16.68 2.68 16 2 C12.78134446 1.64069286 12.78134446 1.64069286 9.125 1.6875 C7.27261719 1.66236328 7.27261719 1.66236328 5.3828125 1.63671875 C1.86805468 2.01416965 0.51744421 2.60273529 -2 5 C-1.34 3.35 -0.68 1.7 0 0 Z " fill="#D6D8DC" transform="translate(196,239)"/>
<path d="M0 0 C0.33 0 0.66 0 1 0 C1.04898438 0.58007812 1.09796875 1.16015625 1.1484375 1.7578125 C1.59375384 6.4106005 2.15303957 10.65421076 4 15 C4.66 15.33 5.32 15.66 6 16 C5.67 16.99 5.34 17.98 5 19 C1.58477607 16.72318404 1.13576061 15.83454414 0 12 C-0.1953125 8.88671875 -0.1953125 8.88671875 -0.125 5.6875 C-0.10695313 4.61886719 -0.08890625 3.55023438 -0.0703125 2.44921875 C-0.04710938 1.64097656 -0.02390625 0.83273438 0 0 Z " fill="#CF3141" transform="translate(74,50)"/>
<path d="M0 0 C-0.17625835 2.37948772 -0.69719773 3.70225849 -2.40234375 5.37890625 C-3.90649092 6.62115486 -5.45129851 7.81376056 -7 9 C-6.66666667 7.66666667 -6.33333333 6.33333333 -6 5 C-5.855625 4.278125 -5.71125 3.55625 -5.5625 2.8125 C-5.376875 2.214375 -5.19125 1.61625 -5 1 C-3 0 -3 0 0 0 Z " fill="#D83D49" transform="translate(280,111)"/>
<path d="M0 0 C1.32 1.65 2.64 3.3 4 5 C3.67 5.66 3.34 6.32 3 7 C2.01 6.67 1.02 6.34 0 6 C-0.99 6.33 -1.98 6.66 -3 7 C-2.25 2.25 -2.25 2.25 0 0 Z " fill="#363D4A" transform="translate(183,282)"/>
<path d="M0 0 C0.66 0.33 1.32 0.66 2 1 C-1.3 4.3 -4.6 7.6 -8 11 C-8.33 10.34 -8.66 9.68 -9 9 C-6.21000549 5.51250686 -3.74764169 2.49842779 0 0 Z " fill="#D8DDE1" transform="translate(236,243)"/>
<path d="M0 0 C1.21236328 0.02707031 1.21236328 0.02707031 2.44921875 0.0546875 C3.37154297 0.08949219 3.37154297 0.08949219 4.3125 0.125 C2.9925 0.455 1.6725 0.785 0.3125 1.125 C0.3125 1.785 0.3125 2.445 0.3125 3.125 C-2 3.75 -2 3.75 -4.6875 4.125 C-5.6775 3.465 -6.6675 2.805 -7.6875 2.125 C-4.48369983 -0.01086678 -3.66810033 -0.10632175 0 0 Z " fill="#575F6D" transform="translate(335.6875,255.875)"/>
<path d="M0 0 C2 2 2 2 2 5 C-0.64 4.67 -3.28 4.34 -6 4 C-5.67 3.01 -5.34 2.02 -5 1 C-3.68 1 -2.36 1 -1 1 C-0.67 0.67 -0.34 0.34 0 0 Z " fill="#424654" transform="translate(389,262)"/>
<path d="M0 0 C3 1 3 1 5 4 C4.625 6.1875 4.625 6.1875 4 8 C2 6.25 2 6.25 0 4 C0 2.68 0 1.36 0 0 Z " fill="#4E5762" transform="translate(386,256)"/>
<path d="M0 0 C2.75 0.25 2.75 0.25 5 1 C4.67 1.66 4.34 2.32 4 3 C1.35139573 3.59355614 -1.29197322 3.74209269 -4 4 C-2.3125 1.9375 -2.3125 1.9375 0 0 Z " fill="#3A4354" transform="translate(372,276)"/>
<path d="M0 0 C0.33 0.99 0.66 1.98 1 3 C-0.40445835 5.2636564 -2.1967913 7.0208685 -4 9 C-4.33 8.01 -4.66 7.02 -5 6 C-3.59554165 3.7363436 -1.8032087 1.9791315 0 0 Z M-6 9 C-5.67 9.66 -5.34 10.32 -5 11 C-5.66 10.67 -6.32 10.34 -7 10 C-6.67 9.67 -6.34 9.34 -6 9 Z " fill="#3B4556" transform="translate(284,290)"/>
<path d="M0 0 C0.33 0.99 0.66 1.98 1 3 C-2 5 -2 5 -6 5 C-6 5.66 -6 6.32 -6 7 C-7.32 6.67 -8.64 6.34 -10 6 C-7 4 -7 4 -3 4 C-3 3.34 -3 2.68 -3 2 C-2.01 1.34 -1.02 0.68 0 0 Z " fill="#643A42" transform="translate(202,185)"/>
<path d="M0 0 C1.32 0.33 2.64 0.66 4 1 C1.45543849 3.96865509 -1.48994665 5.3619751 -5 7 C-4.34 5.68 -3.68 4.36 -3 3 C-2.34 3 -1.68 3 -1 3 C-0.67 2.01 -0.34 1.02 0 0 Z " fill="#743744" transform="translate(256,137)"/>
<path d="M0 0 C3.24208567 0.35049575 4.61527704 0.56221181 6.8125 3.0625 C7.204375 3.701875 7.59625 4.34125 8 5 C4.75791433 4.64950425 3.38472296 4.43778819 1.1875 1.9375 C0.795625 1.298125 0.40375 0.65875 0 0 Z " fill="#CC3448" transform="translate(82,72)"/>
<path d="M0 0 C0.33 0.99 0.66 1.98 1 3 C-4.45769231 6.10096154 -4.45769231 6.10096154 -7.203125 5.58984375 C-7.79609375 5.39519531 -8.3890625 5.20054688 -9 5 C-8.43410156 4.72285156 -7.86820312 4.44570312 -7.28515625 4.16015625 C-6.55167969 3.79792969 -5.81820313 3.43570313 -5.0625 3.0625 C-3.96615234 2.52302734 -3.96615234 2.52302734 -2.84765625 1.97265625 C-1.03750973 1.13628173 -1.03750973 1.13628173 0 0 Z " fill="#69333C" transform="translate(339,73)"/>
</svg>
